<svg width="24" height="24" viewBox="0 0 24 24" fill="none" xmlns="http://www.w3.org/2000/svg">
<path fill-rule="evenodd" clip-rule="evenodd" d="M15.597 11.082C15.707 11.372 15.987 11.572 16.297 11.572C16.607 11.572 16.887 11.372 16.997 11.082L17.267 10.362C17.567 9.56199 17.717 9.16199 17.927 8.95199C18.135 8.74399 18.529 8.59499 19.333 8.29199L19.357 8.28199L20.057 8.02199C20.347 7.91199 20.547 7.63199 20.547 7.32199C20.547 7.01199 20.347 6.73199 20.057 6.62199L19.337 6.35199C18.537 6.05199 18.137 5.90199 17.927 5.69199C17.719 5.48399 17.57 5.08899 17.265 4.28399L17.257 4.26199L16.997 3.56199C16.9429 3.41956 16.8472 3.29668 16.7224 3.2093C16.5976 3.12193 16.4494 3.07409 16.297 3.07199C15.987 3.07199 15.707 3.27199 15.597 3.56199L15.327 4.28199C15.027 5.08199 14.877 5.48199 14.667 5.69199C14.459 5.89999 14.064 6.04999 13.259 6.35399L13.237 6.36199L12.537 6.62199C12.247 6.73199 12.047 7.01199 12.047 7.32199C12.047 7.63199 12.247 7.91199 12.537 8.02199L13.257 8.29199C14.057 8.59199 14.457 8.74199 14.667 8.95199C14.875 9.15999 15.024 9.55499 15.329 10.36L15.337 10.382L15.597 11.082ZM15.727 7.89199C15.497 7.65199 15.227 7.48199 14.877 7.32199C15.217 7.16199 15.487 6.99199 15.727 6.75199C15.967 6.52199 16.137 6.25199 16.297 5.90199C16.457 6.24199 16.627 6.51199 16.867 6.75199C17.097 6.99199 17.367 7.16199 17.717 7.32199C17.377 7.48199 17.107 7.65199 16.867 7.89199C16.627 8.12199 16.457 8.39199 16.297 8.74199C16.137 8.40199 15.967 8.13199 15.727 7.89199ZM11.797 19.572C7.527 19.572 4.047 16.092 4.047 11.822C4.047 7.55199 7.527 4.07199 11.797 4.07199C12.207 4.07199 12.547 4.41199 12.547 4.82199C12.547 5.23199 12.207 5.57199 11.797 5.57199C8.347 5.57199 5.547 8.37199 5.547 11.822C5.547 15.272 8.347 18.072 11.797 18.072C15.247 18.072 18.047 15.272 18.047 11.822C18.047 11.412 18.387 11.072 18.797 11.072C19.207 11.072 19.547 11.412 19.547 11.822C19.5492 13.6186 18.923 15.3594 17.777 16.743L21.327 20.293C21.617 20.583 21.617 21.063 21.327 21.353C21.177 21.503 20.987 21.573 20.797 21.573C20.607 21.573 20.417 21.503 20.267 21.353L16.717 17.803C15.3337 18.9488 13.5932 19.5739 11.797 19.572Z" fill="#991155"/>
</svg>
